<svg width="308.1" height="39.41625849842825" viewBox="0 0 369.7027027027027 47.2972972972973" class="looka-1j8o68f">
    <g id="SvgjsG2554" featurekey="xG21Y3-0"
        transform="matrix(0.16775386199922673,0,0,0.16775386199922673,-1.5144290514098626,-1.5144287314447633)"
        fill="#ea2088">
        <g xmlns="http://www.w3.org/2000/svg">
            <path
                d="M209.1,9.1c-10.2,0.8-19.7,10.2-20.7,20.4c-0.2,1.5-0.2,3,0,4.4c0.7,7.9-2.3,15.7-8,21.3l-1.3,1.2   c-2.7,2.6-8.5,4.3-14.1,5.3c-9.9,1.7-20.1,1.7-30,0c-5.6-1-11.4-2.6-14.1-5.3l-1.2-1.2c-5.7-5.5-8.7-13.4-8-21.3   c0.1-1.5,0.1-2.9,0-4.4c-1-10.2-10.6-19.6-20.8-20.4C76.9,8,65.3,19.6,66.4,33.6c0.9,11,9.7,19.9,20.7,20.8c1.5,0.1,2.9,0.1,4.3,0   c8.1-0.8,16.2,1.6,22,7.4l1.1,1.1c6.3,6.1,9,15,7.6,23.7c-0.4,2.1-0.5,4.3-0.3,6.5c1,13.8,12.3,25.1,26.1,26   c16.5,1.1,30.2-11.9,30.2-28.1c0-1.6-0.2-3.3-0.5-4.8c-1.5-8.6,1.5-17.3,7.8-23.4l1-1c5.8-5.6,13.9-8.2,22-7.4   c1.4,0.2,2.8,0.2,4.3,0c11-0.9,19.8-9.8,20.7-20.8C234.7,19.6,223.1,8,209.1,9.1z">
            </path>
            <path
                d="M9.1,90.9c0.8,10.2,10.2,19.7,20.4,20.7c1.5,0.2,3,0.2,4.4,0c7.9-0.7,15.7,2.3,21.3,8l1.2,1.3c2.6,2.7,4.3,8.5,5.3,14.1   c1.7,9.9,1.7,20.1,0,30c-1,5.6-2.6,11.4-5.3,14.1l-1.2,1.2c-5.5,5.7-13.4,8.7-21.3,8c-1.5-0.1-2.9-0.1-4.4,0   c-10.2,1-19.6,10.6-20.4,20.8c-1.1,14,10.5,25.7,24.6,24.5c11-0.9,19.9-9.7,20.8-20.7c0.1-1.5,0.1-2.9,0-4.3   c-0.8-8.1,1.6-16.2,7.4-22l1.1-1.1c6.1-6.3,15-9,23.7-7.6c2.1,0.4,4.3,0.5,6.5,0.3c13.8-1,25.1-12.3,26-26.1   c1.1-16.5-11.9-30.2-28.1-30.2c-1.6,0-3.3,0.2-4.8,0.5c-8.6,1.5-17.3-1.5-23.4-7.8l-1-1c-5.6-5.8-8.2-13.9-7.4-22   c0.2-1.4,0.2-2.8,0-4.3c-1-11-9.9-19.9-20.9-20.7C19.6,65.3,8,76.9,9.1,90.9z">
            </path>
            <path
                d="M90.9,290.9c10.2-0.8,19.7-10.2,20.7-20.4c0.2-1.5,0.2-3,0-4.4c-0.7-7.9,2.3-15.7,8-21.3l1.2-1.2c2.7-2.6,8.5-4.3,14.1-5.3   c9.9-1.7,20.1-1.7,30,0c5.6,1,11.4,2.6,14.1,5.3l1.2,1.2c5.7,5.5,8.7,13.4,8,21.3c-0.1,1.5-0.1,2.9,0,4.4   c1,10.2,10.6,19.6,20.7,20.4c14,1.1,25.7-10.5,24.5-24.6c-0.9-11-9.7-19.9-20.7-20.8c-1.5-0.1-2.9-0.1-4.3,0   c-8.1,0.8-16.2-1.6-22-7.4l-1.1-1.1c-6.3-6.1-9-15-7.6-23.7c0.4-2.1,0.5-4.3,0.3-6.5c-1-13.8-12.3-25.1-26.1-26   c-16.5-1.1-30.2,11.9-30.2,28.1c0,1.6,0.2,3.3,0.5,4.8c1.5,8.6-1.5,17.3-7.8,23.4l-1,1c-5.8,5.6-13.9,8.2-22,7.4   c-1.4-0.2-2.8-0.2-4.3,0c-11,0.9-19.8,9.8-20.7,20.8C65.3,280.4,76.9,292,90.9,290.9z">
            </path>
            <path
                d="M290.9,209.1c-0.8-10.2-10.2-19.7-20.4-20.7c-1.5-0.2-3-0.2-4.4,0c-7.9,0.7-15.7-2.3-21.3-8l-1.2-1.3   c-2.6-2.7-4.3-8.5-5.3-14.1c-1.7-9.9-1.7-20.1,0-30c1-5.6,2.6-11.4,5.3-14.1l1.2-1.2c5.5-5.7,13.4-8.7,21.3-8   c1.5,0.1,2.9,0.1,4.4,0c10.2-1,19.6-10.6,20.4-20.7c1.1-14-10.5-25.7-24.6-24.5c-11,0.9-19.9,9.7-20.8,20.7c-0.1,1.5-0.1,2.9,0,4.3   c0.8,8.1-1.6,16.2-7.4,22l-1.1,1.1c-6.1,6.3-15,9-23.7,7.6c-2.1-0.4-4.3-0.5-6.5-0.3c-13.8,1-25.1,12.3-26,26.1   c-1.1,16.5,11.9,30.2,28.1,30.2c1.6,0,3.3-0.2,4.8-0.5c8.6-1.5,17.3,1.5,23.4,7.8l1,1c5.6,5.8,8.2,13.9,7.4,22   c-0.2,1.4-0.2,2.8,0,4.3c0.9,11,9.8,19.8,20.8,20.7C280.4,234.7,292,223.1,290.9,209.1z">
            </path>
            <path
                d="M89.1,107.2c10,0,18.2-8.1,18.2-18.2c0-10-8.1-18.2-18.2-18.2c-10,0-18.2,8.1-18.2,18.2C70.9,99.1,79,107.2,89.1,107.2z">
            </path>
            <path
                d="M89.1,229.1c10,0,18.2-8.1,18.2-18.2c0-10-8.1-18.2-18.2-18.2c-10,0-18.2,8.1-18.2,18.2C70.9,221,79,229.1,89.1,229.1z">
            </path>
            <path
                d="M210.9,229.1c10,0,18.2-8.1,18.2-18.2c0-10-8.1-18.2-18.2-18.2c-10,0-18.2,8.1-18.2,18.2   C192.8,221,200.9,229.1,210.9,229.1z">
            </path>
            <path
                d="M210.9,107.2c10,0,18.2-8.1,18.2-18.2c0-10-8.1-18.2-18.2-18.2c-10,0-18.2,8.1-18.2,18.2   C192.8,99.1,200.9,107.2,210.9,107.2z">
            </path>
            <path d="M150,168.2c10,0,18.2-8.1,18.2-18.2s-8.1-18.2-18.2-18.2s-18.2,8.1-18.2,18.2S140,168.2,150,168.2z">
            </path>
        </g>
    </g>
    <g id="SvgjsG2555" featurekey="n48U4P-0"
        transform="matrix(2.0110465373154387,0,0,2.0110465373154387,65.83355528358994,-6.503184812568238)"
        fill="#ffffff">
        <path
            d="M5.32 9.38 c1.3867 0 2.47 0.28002 3.25 0.84002 s1.2167 1.38 1.31 2.46 l-2.7 0 c-0.04 -0.49334 -0.22 -0.85 -0.54 -1.07 s-0.78666 -0.33 -1.4 -0.33 c-0.53334 0 -0.93 0.08 -1.19 0.24 s-0.39 0.4 -0.39 0.72 c0 0.24 0.08666 0.44 0.26 0.6 s0.43668 0.3 0.79002 0.42 s0.74334 0.22 1.17 0.3 c1.2933 0.25334 2.2066 0.51334 2.74 0.78 s0.92334 0.58666 1.17 0.96 s0.37 0.83334 0.37 1.38 c0 1.16 -0.42334 2.05 -1.27 2.67 s-1.9967 0.93 -3.45 0.93 c-1.52 0 -2.7034 -0.32666 -3.55 -0.98 s-1.2833 -1.54 -1.31 -2.66 l2.7 0 c0 0.53334 0.20666 0.95668 0.62 1.27 s0.93334 0.47 1.56 0.47 c0.53334 0 0.97668 -0.11666 1.33 -0.35 s0.53 -0.55668 0.53 -0.97002 c0 -0.26666 -0.11 -0.48666 -0.33 -0.66 s-0.53 -0.32668 -0.93 -0.46002 s-1.02 -0.28668 -1.86 -0.46002 c-0.66666 -0.13334 -1.26 -0.31334 -1.78 -0.54 s-0.91666 -0.52332 -1.19 -0.88998 s-0.41 -0.81666 -0.41 -1.35 c0 -0.68 0.16334 -1.2733 0.49 -1.78 s0.82666 -0.89 1.5 -1.15 s1.51 -0.39 2.51 -0.39 z M14.74 5.720000000000001 l0 2.34 l-2.84 0 l0 -2.34 l2.84 0 z M14.74 9.66 l0 10.34 l-2.84 0 l0 -10.34 l2.84 0 z M21.1 9.38 c1.4267 0 2.4534 0.55332 3.08 1.66 l0.04 0 l0 -1.38 l2.7 0 l0 9.7 c0 1.4933 -0.46334 2.6266 -1.39 3.4 s-2.2434 1.16 -3.95 1.16 c-1.3067 0 -2.3834 -0.31334 -3.23 -0.94 s-1.2967 -1.42 -1.35 -2.38 l2.82 0 c0.22666 0.94666 0.93332 1.42 2.12 1.42 c0.73334 0 1.2967 -0.21666 1.69 -0.65 s0.59 -1.05 0.59 -1.85 l0 -1.42 l-0.04 0 c-0.28 0.50666 -0.69 0.9 -1.23 1.18 s-1.1633 0.42 -1.87 0.42 c-1.3867 0 -2.47 -0.45334 -3.25 -1.36 s-1.17 -2.1866 -1.17 -3.84 c0 -1.4667 0.41 -2.6866 1.23 -3.66 s1.89 -1.46 3.21 -1.46 z M19.5 14.46 c0 0.97334 0.20336 1.7333 0.61002 2.28 s0.97 0.82 1.69 0.82 c0.73334 0 1.32 -0.26334 1.76 -0.79 s0.66 -1.2233 0.66 -2.09 c0 -1.04 -0.21 -1.8267 -0.63 -2.36 s-1.0233 -0.8 -1.81 -0.8 c-0.73334 0 -1.2967 0.27666 -1.69 0.83 s-0.59 1.2567 -0.59 2.11 z M32.04 5.720000000000001 l0 5.38 l0.06 0 c0.32 -0.53334 0.75334 -0.95334 1.3 -1.26 s1.1267 -0.46 1.74 -0.46 c1.32 0 2.2766 0.33334 2.87 1 s0.89 1.72 0.89 3.16 l0 6.46 l-2.84 0 l0 -5.88 c0 -0.84 -0.13666 -1.4667 -0.41 -1.88 s-0.74334 -0.62 -1.41 -0.62 c-0.76 0 -1.3167 0.23 -1.67 0.69 s-0.53 1.2167 -0.53 2.27 l0 5.42 l-2.84 0 l0 -14.28 l2.84 0 z M44.660000000000004 6.5600000000000005 l0.000019531 3.1 l2.08 0 l0 1.9 l-2.08 0 l0 5.12 c0 0.48 0.08 0.8 0.24 0.96 s0.48 0.24 0.96 0.24 c0.34666 0 0.64 -0.02666 0.88 -0.08 l0 2.22 c-0.4 0.06666 -0.96 0.1 -1.68 0.1 c-1.0933 0 -1.9067 -0.18666 -2.44 -0.56 s-0.8 -1.02 -0.8 -1.94 l0 -6.06 l-1.72 0 l0 -1.9 l1.72 0 l0 -3.1 l2.84 0 z M59.7 9.38 c0.24 0 0.44668 0.03334 0.62002 0.1 l0 2.64 c-0.30666 -0.06666 -0.64666 -0.1 -1.02 -0.1 c-1.8667 0 -2.8 1.1067 -2.8 3.32 l0 4.66 l-2.84 0 l0 -10.34 l2.7 0 l0 1.92 l0.04 0 c0.28 -0.66666 0.72334 -1.2 1.33 -1.6 s1.2633 -0.6 1.97 -0.6 z M65.86000000000001 9.38 c0.97334 0 1.84 0.22664 2.6 0.67998 s1.3567 1.11 1.79 1.97 s0.65 1.85 0.65 2.97 c0 0.10666 -0.0066602 0.28 -0.02 0.52 l-7.46 0 c0.02666 0.82666 0.24332 1.47 0.64998 1.93 s1.03 0.69 1.87 0.69 c0.52 0 0.99666 -0.13 1.43 -0.39 s0.71 -0.57666 0.83 -0.95 l2.5 0 c-0.73334 2.32 -2.3466 3.48 -4.84 3.48 c-0.94666 -0.01334 -1.8233 -0.22 -2.63 -0.62 s-1.45 -1.0233 -1.93 -1.87 s-0.72 -1.83 -0.72 -2.95 c0 -1.0533 0.24334 -2.0134 0.73 -2.88 s1.1333 -1.5133 1.94 -1.94 s1.6767 -0.64 2.61 -0.64 z M68.04 13.719999999999999 c-0.13334 -0.77334 -0.38 -1.3333 -0.74 -1.68 s-0.87334 -0.52 -1.54 -0.52 c-0.69334 0 -1.24 0.19666 -1.64 0.59 s-0.63334 0.93 -0.7 1.61 l4.62 0 z M77.32000000000001 9.38 c3.0134 0.01334 4.52 0.9933 4.52 2.94 l0 5.48 c0 1.0133 0.12 1.7467 0.36 2.2 l-2.88 0 c-0.10666 -0.32 -0.17332 -0.65334 -0.19998 -1 c-0.84 0.85334 -2 1.28 -3.48 1.28 c-1.08 0 -1.9367 -0.27334 -2.57 -0.82 s-0.95 -1.3067 -0.95 -2.28 c0 -0.94666 0.3 -1.68 0.9 -2.2 c0.61334 -0.54666 1.7267 -0.89332 3.34 -1.04 c1.1467 -0.12 1.8733 -0.27 2.18 -0.45 s0.46 -0.45666 0.46 -0.83 c0 -0.46666 -0.14 -0.81332 -0.42 -1.04 s-0.74666 -0.34 -1.4 -0.34 c-0.6 0 -1.0533 0.12334 -1.36 0.37 s-0.48666 0.64332 -0.54 1.19 l-2.84 0 c0.06666 -1.1333 0.53332 -1.9933 1.4 -2.58 s2.0266 -0.88 3.48 -0.88 z M74.96000000000001 17.06 c0 0.88 0.58 1.32 1.74 1.32 c1.52 -0.01334 2.2866 -0.79334 2.3 -2.34 l0 -1.1 c-0.22666 0.22666 -0.8 0.39332 -1.72 0.49998 c-0.8 0.09334 -1.3867 0.25668 -1.76 0.49002 s-0.56 0.61 -0.56 1.13 z M94.12 5.720000000000001 l0 14.28 l-2.7 0 l0 -1.32 l-0.04 0 c-0.61334 1.0667 -1.66 1.6 -3.14 1.6 c-1.4267 0 -2.5566 -0.52 -3.39 -1.56 s-1.25 -2.3666 -1.25 -3.98 c0 -1.5733 0.42334 -2.86 1.27 -3.86 s1.95 -1.5 3.31 -1.5 c0.62666 0 1.2167 0.13 1.77 0.39 s0.98334 0.64334 1.29 1.15 l0.04 0 l0 -5.2 l2.84 0 z M86.44000000000001 14.82 c0 0.94666 0.22332 1.7367 0.66998 2.37 s1.0567 0.95 1.83 0.95 c0.81334 0 1.4233 -0.29666 1.83 -0.89 s0.61 -1.41 0.61 -2.45 s-0.21334 -1.8467 -0.64 -2.42 s-1.0333 -0.86 -1.82 -0.86 c-0.81334 0 -1.43 0.3 -1.85 0.9 s-0.63 1.4 -0.63 2.4 z M101.04 9.38 c0.97334 0 1.84 0.22664 2.6 0.67998 s1.3567 1.11 1.79 1.97 s0.65 1.85 0.65 2.97 c0 0.10666 -0.0066602 0.28 -0.02 0.52 l-7.46 0 c0.02666 0.82666 0.24332 1.47 0.64998 1.93 s1.03 0.69 1.87 0.69 c0.52 0 0.99666 -0.13 1.43 -0.39 s0.71 -0.57666 0.83 -0.95 l2.5 0 c-0.73334 2.32 -2.3466 3.48 -4.84 3.48 c-0.94666 -0.01334 -1.8233 -0.22 -2.63 -0.62 s-1.45 -1.0233 -1.93 -1.87 s-0.72 -1.83 -0.72 -2.95 c0 -1.0533 0.24334 -2.0134 0.73 -2.88 s1.1333 -1.5133 1.94 -1.94 s1.6767 -0.64 2.61 -0.64 z M103.22 13.719999999999999 c-0.13334 -0.77334 -0.38 -1.3333 -0.74 -1.68 s-0.87334 -0.52 -1.54 -0.52 c-0.69334 0 -1.24 0.19666 -1.64 0.59 s-0.63334 0.93 -0.7 1.61 l4.62 0 z M113.78000000000002 9.38 c0.24 0 0.44668 0.03334 0.62002 0.1 l0 2.64 c-0.30666 -0.06666 -0.64666 -0.1 -1.02 -0.1 c-1.8667 0 -2.8 1.1067 -2.8 3.32 l0 4.66 l-2.84 0 l0 -10.34 l2.7 0 l0 1.92 l0.04 0 c0.28 -0.66666 0.72334 -1.2 1.33 -1.6 s1.2633 -0.6 1.97 -0.6 z M126.90000000000002 9.38 c1.4267 0 2.5666 0.5 3.42 1.5 s1.28 2.3534 1.28 4.06 c0 1.56 -0.41 2.84 -1.23 3.84 s-1.9233 1.5 -3.31 1.5 c-1.36 0 -2.3934 -0.52 -3.1 -1.56 l-0.04 0 l0 4.92 l-2.84 0 l0 -13.98 l2.7 0 l0 1.32 l0.04 0 c0.68 -1.0667 1.7067 -1.6 3.08 -1.6 z M123.82000000000001 14.86 c0 1.0133 0.21336 1.8133 0.64002 2.4 s1.04 0.88 1.84 0.88 c0.82666 0 1.4433 -0.29334 1.85 -0.88 s0.61 -1.3867 0.61 -2.4 c0 -1.04 -0.22 -1.8567 -0.66 -2.45 s-1.0533 -0.89 -1.84 -0.89 s-1.39 0.29334 -1.81 0.88 s-0.63 1.4067 -0.63 2.46 z M139.34000000000003 9.38 c0.24 0 0.44668 0.03334 0.62002 0.1 l0 2.64 c-0.30666 -0.06666 -0.64666 -0.1 -1.02 -0.1 c-1.8667 0 -2.8 1.1067 -2.8 3.32 l0 4.66 l-2.84 0 l0 -10.34 l2.7 0 l0 1.92 l0.04 0 c0.28 -0.66666 0.72334 -1.2 1.33 -1.6 s1.2633 -0.6 1.97 -0.6 z M145.74 9.38 c1.6533 0 2.96 0.50334 3.92 1.51 s1.44 2.3234 1.44 3.95 c0 1.64 -0.49 2.9566 -1.47 3.95 s-2.2766 1.49 -3.89 1.49 c-1.64 0 -2.94 -0.50334 -3.9 -1.51 s-1.44 -2.3166 -1.44 -3.93 c0 -1.6667 0.49 -2.9934 1.47 -3.98 s2.27 -1.48 3.87 -1.48 z M143.24 14.84 c0 1.0533 0.21334 1.8666 0.64 2.44 s1.0467 0.86 1.86 0.86 c0.84 0 1.47 -0.29334 1.89 -0.88 s0.63 -1.3933 0.63 -2.42 c0 -1.0667 -0.21666 -1.8867 -0.65 -2.46 s-1.0633 -0.86 -1.89 -0.86 c-0.8 0 -1.4133 0.28666 -1.84 0.86 s-0.64 1.3933 -0.64 2.46 z">
        </path>
    </g>
</svg>